# xmcd CD database file
#
# Track frame offsets:
#	150
#	48112
#	85342
#	153930
#
# Disc length: 2291 seconds
#
# Revision: 0
# Processed by: cddbd v1.5.1PL0 Copyright (c) Steve Scherf et al.
# Submitted via: CDex 1.51
#
DISCID=2208f104
DTITLE=Miles Davis - We Want Miles [CD1]
DYEAR=1981
DGENRE=Jazz
TTITLE0=Jean Pierre
TTITLE1=Back Seat Betty
TTITLE2=Fast Track
TTITLE3=Jean Pierre
EXTD=YEAR: 1981
EXTT0=
EXTT1=
EXTT2=
EXTT3=
PLAYORDER=
